<?xml version="1.0" encoding="UTF-8" standalone="no" ?>
<!DOCTYPE svg PUBLIC "-//W3C//DTD SVG 1.1//EN" "http://www.w3.org/Graphics/SVG/1.1/DTD/svg11.dtd">
<svg xmlns="http://www.w3.org/2000/svg" xmlns:xlink="http://www.w3.org/1999/xlink" version="1.1" width="84.48" height="84.0016" xml:space="preserve">
<desc>Created with Fabric.js 1.6.0-rc.1</desc>
<defs></defs>
<g style="stroke: none; stroke-width: 1; stroke-dasharray: none; stroke-linecap: butt; stroke-linejoin: miter; stroke-miterlimit: 10; fill: none; fill-rule: nonzero; opacity: 1;" transform="translate(10 10) scale(0.13 0.13)" >
  <path d="M 420.379 227.5 h -86.081 l -56.475 150.18 l -140.647 -374 L 53.009 227.5 H 0 v 40 h 80.702 l 56.475 -150.18 l 140.647 374 l 84.167 -223.82 h 58.388 c -3.414 -5.888 -5.379 -12.716 -5.379 -20 S 416.965 233.388 420.379 227.5 z" style="stroke: none; stroke-width: 1; stroke-dasharray: none; stroke-linecap: butt; stroke-linejoin: miter; stroke-miterlimit: 10; fill: #d53139; fill-rule: nonzero; opacity: 1;" transform=" matrix(1 0 0 1 0 0) " stroke-linecap="round" />
  <path d="M 455 207.5 v 80 c 22.06 0 40 -17.94 40 -40 S 477.06 207.5 455 207.5 z" style="stroke: none; stroke-width: 1; stroke-dasharray: none; stroke-linecap: butt; stroke-linejoin: miter; stroke-miterlimit: 10; fill: #ee4358; fill-rule: nonzero; opacity: 1;" transform=" matrix(1 0 0 1 0 0) " stroke-linecap="round" />
  <path d="M 420.379 227.5 c -3.414 5.888 -5.379 12.716 -5.379 20 s 1.965 14.112 5.379 20 c 6.926 11.945 19.844 20 34.621 20 v -80 C 440.224 207.5 427.306 215.555 420.379 227.5 z" style="stroke: none; stroke-width: 1; stroke-dasharray: none; stroke-linecap: butt; stroke-linejoin: miter; stroke-miterlimit: 10; fill: #ee4358; fill-rule: nonzero; opacity: 1;" transform=" matrix(1 0 0 1 0 0) " stroke-linecap="round" />
</g>
</svg>